<svg xmlns="http://www.w3.org/2000/svg" width="960" height="520" viewBox="0 0 960 520">
  <rect width="100%" height="100%" fill="#ffffff" />
  <text x="76" y="26" font-family="Arial" font-size="20" font-weight="700" fill="#111827">Portfolio development</text>
  <text x="926" y="26" text-anchor="end" font-family="Arial" font-size="13" fill="#4b5563">Latest $5,223.13</text>
  <line x1="76" y1="444.0" x2="926" y2="444.0" stroke="#e5e7eb" /><text x="66" y="448.0" text-anchor="end" font-family="Arial" font-size="12" fill="#4b5563">$5,173</text>
<line x1="76" y1="343.5" x2="926" y2="343.5" stroke="#e5e7eb" /><text x="66" y="347.5" text-anchor="end" font-family="Arial" font-size="12" fill="#4b5563">$5,264</text>
<line x1="76" y1="243.0" x2="926" y2="243.0" stroke="#e5e7eb" /><text x="66" y="247.0" text-anchor="end" font-family="Arial" font-size="12" fill="#4b5563">$5,354</text>
<line x1="76" y1="142.5" x2="926" y2="142.5" stroke="#e5e7eb" /><text x="66" y="146.5" text-anchor="end" font-family="Arial" font-size="12" fill="#4b5563">$5,445</text>
<line x1="76" y1="42.0" x2="926" y2="42.0" stroke="#e5e7eb" /><text x="66" y="46.0" text-anchor="end" font-family="Arial" font-size="12" fill="#4b5563">$5,535</text>
  <line x1="76" y1="444" x2="926" y2="444" stroke="#9ca3af" />
  <line x1="76" y1="42" x2="76" y2="444" stroke="#9ca3af" />
  <polyline points="76.0,358.7 501.0,358.7 926.0,358.7" fill="none" stroke="#6b7280" stroke-width="2" stroke-dasharray="6 5" />
  <polyline points="76.0,116.9 501.0,97.5 926.0,101.2" fill="none" stroke="#2563eb" stroke-width="3" />
  <polyline points="76.0,365.7 501.0,375.1 926.0,388.5" fill="none" stroke="#059669" stroke-width="3" />
  <text x="76" y="478" font-family="Arial" font-size="12" fill="#4b5563">2026-04-22</text>
  <text x="926" y="478" text-anchor="end" font-family="Arial" font-size="12" fill="#4b5563">2026-04-24</text>
  <rect x="76" y="492" width="14" height="4" fill="#059669" /><text x="96" y="497" font-family="Arial" font-size="12" fill="#111827">Capitol portfolio</text>
  <rect x="236" y="492" width="14" height="4" fill="#2563eb" /><text x="256" y="497" font-family="Arial" font-size="12" fill="#111827">Benchmark</text>
  <rect x="361" y="492" width="14" height="4" fill="#6b7280" /><text x="381" y="497" font-family="Arial" font-size="12" fill="#111827">Contributed cash</text>
</svg>
